<svg width="20" height="20" viewBox="0 0 20 20" fill="none" xmlns="http://www.w3.org/2000/svg" class="jp-icon3">
<path d="M7.19026 4.34976C5.15026 6.63976 3.75026 9.92976 3.62026 10.2398L1.36026 9.26976C0.71026 8.98976 0.55026 8.13976 1.05026 7.63976L4.06026 4.62976C4.53026 4.15976 5.21026 3.94976 5.87026 4.07976L7.19026 4.34976ZM8.68026 14.5098C8.98026 14.8098 9.42026 14.8898 9.80026 14.7098C10.9603 14.1698 13.4503 12.8998 15.0603 11.2898C19.6503 6.69976 19.6903 2.95976 19.4203 1.35976C19.3503 0.959761 19.0303 0.639761 18.6303 0.569761C17.0303 0.299761 13.2903 0.339761 8.70026 4.92976C7.09026 6.53976 5.83026 9.02976 5.28026 10.1898C5.10026 10.5698 5.19026 11.0198 5.48026 11.3098L8.68026 14.5098ZM15.6503 12.8098C13.3603 14.8498 10.0703 16.2498 9.76026 16.3798L10.7303 18.6398C11.0103 19.2898 11.8603 19.4498 12.3603 18.9498L15.3703 15.9398C15.8403 15.4698 16.0503 14.7898 15.9203 14.1298L15.6503 12.8098ZM6.94026 15.4098C7.14026 16.4698 6.79026 17.4498 6.12026 18.1198C5.35026 18.8898 2.96026 19.4598 1.41026 19.7598C0.720261 19.8898 0.11026 19.2798 0.24026 18.5898C0.54026 17.0398 1.10026 14.6498 1.88026 13.8798C2.55026 13.2098 3.53026 12.8598 4.59026 13.0598C5.76026 13.2798 6.72026 14.2398 6.94026 15.4098ZM11.0003 6.99976C11.0003 5.89976 11.9003 4.99976 13.0003 4.99976C14.1003 4.99976 15.0003 5.89976 15.0003 6.99976C15.0003 8.09976 14.1003 8.99976 13.0003 8.99976C11.9003 8.99976 11.0003 8.09976 11.0003 6.99976Z" fill="black" fill-opacity="0.54" class="jp-icon3"/>
</svg>
